<svg width="56" height="56" viewBox="0 0 56 56" fill="none" xmlns="http://www.w3.org/2000/svg">
<path d="M13.9973 20.996C17.8626 20.996 20.996 17.8626 20.996 13.9973C20.996 10.1321 17.8626 6.99866 13.9973 6.99866C10.1321 6.99866 6.99866 10.1321 6.99866 13.9973C6.99866 17.8626 10.1321 20.996 13.9973 20.996Z" stroke="#009689" stroke-width="4.66577" stroke-linecap="round" stroke-linejoin="round"/>
<path d="M18.9431 18.943L27.9946 27.9946" stroke="#009689" stroke-width="4.66577" stroke-linecap="round" stroke-linejoin="round"/>
<path d="M46.6577 9.33154L18.9431 37.0462" stroke="#009689" stroke-width="4.66577" stroke-linecap="round" stroke-linejoin="round"/>
<path d="M13.9973 48.9906C17.8626 48.9906 20.996 45.8572 20.996 41.9919C20.996 38.1267 17.8626 34.9933 13.9973 34.9933C10.1321 34.9933 6.99866 38.1267 6.99866 41.9919C6.99866 45.8572 10.1321 48.9906 13.9973 48.9906Z" stroke="#009689" stroke-width="4.66577" stroke-linecap="round" stroke-linejoin="round"/>
<path d="M34.5267 34.5267L46.6577 46.6577" stroke="#009689" stroke-width="4.66577" stroke-linecap="round" stroke-linejoin="round"/>
</svg>
